solid OpenSCAD_Model
  facet normal -1 0 0
    outer loop
      vertex 0.198062 1.13223 0
      vertex 0.198062 1.13223 6
      vertex 0.198062 48.8678 0
    endloop
  endfacet
  facet normal -1 0 0
    outer loop
      vertex 0.198062 48.8678 0
      vertex 0.198062 1.13223 6
      vertex 0.198062 48.8678 6
    endloop
  endfacet
  facet normal -0.62349 -0.781831 0
    outer loop
      vertex 0.198062 1.13223 6
      vertex 0.198062 1.13223 0
      vertex 1.55496 0.050144 0
    endloop
  endfacet
  facet normal -0.62349 -0.781831 0
    outer loop
      vertex 1.55496 0.050144 6
      vertex 0.198062 1.13223 6
      vertex 1.55496 0.050144 0
    endloop
  endfacet
  facet normal 0 0 -1
    outer loop
      vertex 0.198062 1.13223 0
      vertex 0.198062 48.8678 0
      vertex 1.55496 0.050144 0
    endloop
  endfacet
  facet normal 0 0 -1
    outer loop
      vertex 1.55496 0.050144 0
      vertex 0.198062 48.8678 0
      vertex 1.55496 49.9499 0
    endloop
  endfacet
  facet normal 0 0 -1
    outer loop
      vertex 1.55496 0.050144 0
      vertex 1.55496 49.9499 0
      vertex 44.555 49.9499 0
    endloop
  endfacet
  facet normal 0 0 -1
    outer loop
      vertex 1.55496 0.050144 0
      vertex 44.555 49.9499 0
      vertex 46.247 49.5637 0
    endloop
  endfacet
  facet normal 0 0 -1
    outer loop
      vertex 1.55496 0.050144 0
      vertex 46.247 49.5637 0
      vertex 47 48 0
    endloop
  endfacet
  facet normal 0 0 -1
    outer loop
      vertex 41 10 0
      vertex 47 48 0
      vertex 47 2 0
    endloop
  endfacet
  facet normal 0 0 -1
    outer loop
      vertex 1.55496 0.050144 0
      vertex 47 2 0
      vertex 46.247 0.436337 0
    endloop
  endfacet
  facet normal 0 0 -1
    outer loop
      vertex 1.55496 0.050144 0
      vertex 46.247 0.436337 0
      vertex 44.555 0.050144 0
    endloop
  endfacet
  facet normal 0 0 -1
    outer loop
      vertex 1.55496 0.050144 0
      vertex 47 48 0
      vertex 33.1162 10.9573 0
    endloop
  endfacet
  facet normal 0 0 -1
    outer loop
      vertex 1.55496 0.050144 0
      vertex 33.1162 10.9573 0
      vertex 33.1162 9.04274 0
    endloop
  endfacet
  facet normal 0 0 -1
    outer loop
      vertex 1.55496 0.050144 0
      vertex 33.1162 9.04274 0
      vertex 34.006 7.34751 0
    endloop
  endfacet
  facet normal 0 0 -1
    outer loop
      vertex 1.55496 0.050144 0
      vertex 34.006 7.34751 0
      vertex 35.5816 6.25993 0
    endloop
  endfacet
  facet normal 0 0 -1
    outer loop
      vertex 1.55496 0.050144 0
      vertex 35.5816 6.25993 0
      vertex 47 2 0
    endloop
  endfacet
  facet normal 0 0 -1
    outer loop
      vertex 39.2723 6.70806 0
      vertex 47 2 0
      vertex 37.4821 6.02916 0
    endloop
  endfacet
  facet normal 0 0 -1
    outer loop
      vertex 40.5418 8.14111 0
      vertex 47 2 0
      vertex 39.2723 6.70806 0
    endloop
  endfacet
  facet normal 0 0 -1
    outer loop
      vertex 40.5418 11.8589 0
      vertex 47 48 0
      vertex 41 10 0
    endloop
  endfacet
  facet normal 0 0 -1
    outer loop
      vertex 40.5418 8.14111 0
      vertex 41 10 0
      vertex 47 2 0
    endloop
  endfacet
  facet normal 0 0 -1
    outer loop
      vertex 39.2723 13.2919 0
      vertex 47 48 0
      vertex 40.5418 11.8589 0
    endloop
  endfacet
  facet normal 0 0 -1
    outer loop
      vertex 37.4821 13.9708 0
      vertex 47 48 0
      vertex 39.2723 13.2919 0
    endloop
  endfacet
  facet normal 0 0 -1
    outer loop
      vertex 35.5816 13.7401 0
      vertex 47 48 0
      vertex 37.4821 13.9708 0
    endloop
  endfacet
  facet normal 0 0 -1
    outer loop
      vertex 34.006 12.6525 0
      vertex 47 48 0
      vertex 35.5816 13.7401 0
    endloop
  endfacet
  facet normal 0 0 -1
    outer loop
      vertex 33.1162 10.9573 0
      vertex 47 48 0
      vertex 34.006 12.6525 0
    endloop
  endfacet
  facet normal 0 0 -1
    outer loop
      vertex 37.4821 6.02916 0
      vertex 47 2 0
      vertex 35.5816 6.25993 0
    endloop
  endfacet
  facet normal -0.62349 0.781831 0
    outer loop
      vertex 0.198062 48.8678 0
      vertex 0.198062 48.8678 6
      vertex 1.55496 49.9499 0
    endloop
  endfacet
  facet normal -0.62349 0.781831 0
    outer loop
      vertex 1.55496 49.9499 0
      vertex 0.198062 48.8678 6
      vertex 1.55496 49.9499 6
    endloop
  endfacet
  facet normal 0 0 1
    outer loop
      vertex 0.198062 48.8678 6
      vertex 0.198062 1.13223 6
      vertex 1.55496 0.050144 6
    endloop
  endfacet
  facet normal 0 0 1
    outer loop
      vertex 2 2 6
      vertex 0.198062 48.8678 6
      vertex 1.55496 0.050144 6
    endloop
  endfacet
  facet normal 0 0 1
    outer loop
      vertex 46.247 49.5637 6
      vertex 0.198062 48.8678 6
      vertex 47 48 6
    endloop
  endfacet
  facet normal 0 0 1
    outer loop
      vertex 44.555 49.9499 6
      vertex 0.198062 48.8678 6
      vertex 46.247 49.5637 6
    endloop
  endfacet
  facet normal 0 0 1
    outer loop
      vertex 1.55496 49.9499 6
      vertex 0.198062 48.8678 6
      vertex 44.555 49.9499 6
    endloop
  endfacet
  facet normal 0 0 1
    outer loop
      vertex 44.555 0.050144 6
      vertex 2 2 6
      vertex 1.55496 0.050144 6
    endloop
  endfacet
  facet normal 0 0 1
    outer loop
      vertex 2 21 6
      vertex 0.198062 48.8678 6
      vertex 2 2 6
    endloop
  endfacet
  facet normal 0 0 1
    outer loop
      vertex 2 25 6
      vertex 0.198062 48.8678 6
      vertex 2 21 6
    endloop
  endfacet
  facet normal 0 0 1
    outer loop
      vertex 3 25 6
      vertex 2 25 6
      vertex 3 21 6
    endloop
  endfacet
  facet normal 0 0 1
    outer loop
      vertex 2 25 6
      vertex 2 48 6
      vertex 0.198062 48.8678 6
    endloop
  endfacet
  facet normal 0 0 1
    outer loop
      vertex 3 21 6
      vertex 2 25 6
      vertex 2 21 6
    endloop
  endfacet
  facet normal 0 0 1
    outer loop
      vertex 47 48 6
      vertex 45 48 6
      vertex 47 2 6
    endloop
  endfacet
  facet normal 0 0 1
    outer loop
      vertex 45 48 6
      vertex 0.198062 48.8678 6
      vertex 2 48 6
    endloop
  endfacet
  facet normal 0 0 1
    outer loop
      vertex 47 48 6
      vertex 0.198062 48.8678 6
      vertex 45 48 6
    endloop
  endfacet
  facet normal 0 0 1
    outer loop
      vertex 47 2 6
      vertex 45 48 6
      vertex 45 25 6
    endloop
  endfacet
  facet normal 0 0 1
    outer loop
      vertex 45 21 6
      vertex 45 25 6
      vertex 44 25 6
    endloop
  endfacet
  facet normal 0 0 1
    outer loop
      vertex 47 2 6
      vertex 45 25 6
      vertex 45 21 6
    endloop
  endfacet
  facet normal 0 0 1
    outer loop
      vertex 47 2 6
      vertex 45 2 6
      vertex 46.247 0.436337 6
    endloop
  endfacet
  facet normal 0 0 1
    outer loop
      vertex 44 21 6
      vertex 45 21 6
      vertex 44 25 6
    endloop
  endfacet
  facet normal 0 0 1
    outer loop
      vertex 45 21 6
      vertex 45 2 6
      vertex 47 2 6
    endloop
  endfacet
  facet normal 0 0 1
    outer loop
      vertex 45 2 6
      vertex 44.555 0.050144 6
      vertex 46.247 0.436337 6
    endloop
  endfacet
  facet normal 0 0 1
    outer loop
      vertex 45 2 6
      vertex 2 2 6
      vertex 44.555 0.050144 6
    endloop
  endfacet
  facet normal 0 -1 0
    outer loop
      vertex 1.55496 0.050144 6
      vertex 1.55496 0.050144 0
      vertex 44.555 0.050144 0
    endloop
  endfacet
  facet normal 0 -1 0
    outer loop
      vertex 44.555 0.050144 6
      vertex 1.55496 0.050144 6
      vertex 44.555 0.050144 0
    endloop
  endfacet
  facet normal 0.222521 -0.974928 0
    outer loop
      vertex 44.555 0.050144 6
      vertex 44.555 0.050144 0
      vertex 46.247 0.436337 0
    endloop
  endfacet
  facet normal 0.222521 -0.974928 0
    outer loop
      vertex 46.247 0.436337 6
      vertex 44.555 0.050144 6
      vertex 46.247 0.436337 0
    endloop
  endfacet
  facet normal 0.900969 -0.433884 0
    outer loop
      vertex 46.247 0.436337 6
      vertex 46.247 0.436337 0
      vertex 47 2 0
    endloop
  endfacet
  facet normal 0.900969 -0.433884 0
    outer loop
      vertex 47 2 6
      vertex 46.247 0.436337 6
      vertex 47 2 0
    endloop
  endfacet
  facet normal 1 0 0
    outer loop
      vertex 47 2 6
      vertex 47 2 0
      vertex 47 48 0
    endloop
  endfacet
  facet normal 1 0 0
    outer loop
      vertex 47 48 6
      vertex 47 2 6
      vertex 47 48 0
    endloop
  endfacet
  facet normal 0.900969 0.433884 0
    outer loop
      vertex 47 48 0
      vertex 46.247 49.5637 0
      vertex 46.247 49.5637 6
    endloop
  endfacet
  facet normal 0.900969 0.433884 0
    outer loop
      vertex 47 48 6
      vertex 47 48 0
      vertex 46.247 49.5637 6
    endloop
  endfacet
  facet normal 0.222521 0.974928 0
    outer loop
      vertex 44.555 49.9499 0
      vertex 44.555 49.9499 6
      vertex 46.247 49.5637 0
    endloop
  endfacet
  facet normal 0.222521 0.974928 0
    outer loop
      vertex 46.247 49.5637 0
      vertex 44.555 49.9499 6
      vertex 46.247 49.5637 6
    endloop
  endfacet
  facet normal 0 1 0
    outer loop
      vertex 1.55496 49.9499 0
      vertex 1.55496 49.9499 6
      vertex 44.555 49.9499 0
    endloop
  endfacet
  facet normal 0 1 0
    outer loop
      vertex 44.555 49.9499 0
      vertex 1.55496 49.9499 6
      vertex 44.555 49.9499 6
    endloop
  endfacet
  facet normal 1 0 0
    outer loop
      vertex 33.1162 10.9573 0
      vertex 33.1162 10.9573 2
      vertex 33.1162 9.04274 2
    endloop
  endfacet
  facet normal 1 0 0
    outer loop
      vertex 33.1162 9.04274 0
      vertex 33.1162 10.9573 0
      vertex 33.1162 9.04274 2
    endloop
  endfacet
  facet normal 0.885456 -0.464723 0
    outer loop
      vertex 34.006 12.6525 0
      vertex 34.006 12.6525 2
      vertex 33.1162 10.9573 2
    endloop
  endfacet
  facet normal 0.885456 -0.464723 0
    outer loop
      vertex 33.1162 10.9573 0
      vertex 34.006 12.6525 0
      vertex 33.1162 10.9573 2
    endloop
  endfacet
  facet normal 0.568065 -0.822984 0
    outer loop
      vertex 35.5816 13.7401 0
      vertex 35.5816 13.7401 2
      vertex 34.006 12.6525 2
    endloop
  endfacet
  facet normal 0.568065 -0.822984 0
    outer loop
      vertex 34.006 12.6525 0
      vertex 35.5816 13.7401 0
      vertex 34.006 12.6525 2
    endloop
  endfacet
  facet normal 0.120536 -0.992709 0
    outer loop
      vertex 37.4821 13.9708 0
      vertex 37.4821 13.9708 2
      vertex 35.5816 13.7401 2
    endloop
  endfacet
  facet normal 0.120536 -0.992709 0
    outer loop
      vertex 35.5816 13.7401 0
      vertex 37.4821 13.9708 0
      vertex 35.5816 13.7401 2
    endloop
  endfacet
  facet normal -0.354605 -0.935016 0
    outer loop
      vertex 39.2723 13.2919 0
      vertex 39.2723 13.2919 2
      vertex 37.4821 13.9708 2
    endloop
  endfacet
  facet normal -0.354605 -0.935016 0
    outer loop
      vertex 37.4821 13.9708 0
      vertex 39.2723 13.2919 0
      vertex 37.4821 13.9708 2
    endloop
  endfacet
  facet normal -0.748511 -0.663123 0
    outer loop
      vertex 40.5418 11.8589 2
      vertex 39.2723 13.2919 2
      vertex 40.5418 11.8589 0
    endloop
  endfacet
  facet normal -0.748511 -0.663123 0
    outer loop
      vertex 40.5418 11.8589 0
      vertex 39.2723 13.2919 2
      vertex 39.2723 13.2919 0
    endloop
  endfacet
  facet normal -0.970942 -0.239316 0
    outer loop
      vertex 41 10 2
      vertex 40.5418 11.8589 2
      vertex 41 10 0
    endloop
  endfacet
  facet normal -0.970942 -0.239316 0
    outer loop
      vertex 41 10 0
      vertex 40.5418 11.8589 2
      vertex 40.5418 11.8589 0
    endloop
  endfacet
  facet normal -0.970942 0.239316 0
    outer loop
      vertex 41 10 2
      vertex 41 10 0
      vertex 40.5418 8.14111 2
    endloop
  endfacet
  facet normal -0.970942 0.239316 0
    outer loop
      vertex 40.5418 8.14111 2
      vertex 41 10 0
      vertex 40.5418 8.14111 0
    endloop
  endfacet
  facet normal -0.748511 0.663123 0
    outer loop
      vertex 40.5418 8.14111 2
      vertex 40.5418 8.14111 0
      vertex 39.2723 6.70806 2
    endloop
  endfacet
  facet normal -0.748511 0.663123 0
    outer loop
      vertex 39.2723 6.70806 2
      vertex 40.5418 8.14111 0
      vertex 39.2723 6.70806 0
    endloop
  endfacet
  facet normal -0.354605 0.935016 0
    outer loop
      vertex 39.2723 6.70806 2
      vertex 39.2723 6.70806 0
      vertex 37.4821 6.02916 2
    endloop
  endfacet
  facet normal -0.354605 0.935016 0
    outer loop
      vertex 37.4821 6.02916 2
      vertex 39.2723 6.70806 0
      vertex 37.4821 6.02916 0
    endloop
  endfacet
  facet normal 0.120536 0.992709 0
    outer loop
      vertex 37.4821 6.02916 2
      vertex 37.4821 6.02916 0
      vertex 35.5816 6.25993 2
    endloop
  endfacet
  facet normal 0.120536 0.992709 0
    outer loop
      vertex 35.5816 6.25993 2
      vertex 37.4821 6.02916 0
      vertex 35.5816 6.25993 0
    endloop
  endfacet
  facet normal 0.568065 0.822984 0
    outer loop
      vertex 35.5816 6.25993 2
      vertex 35.5816 6.25993 0
      vertex 34.006 7.34751 2
    endloop
  endfacet
  facet normal 0.568065 0.822984 0
    outer loop
      vertex 34.006 7.34751 2
      vertex 35.5816 6.25993 0
      vertex 34.006 7.34751 0
    endloop
  endfacet
  facet normal 0.885456 0.464723 0
    outer loop
      vertex 33.1162 9.04274 2
      vertex 34.006 7.34751 2
      vertex 34.006 7.34751 0
    endloop
  endfacet
  facet normal 0.885456 0.464723 0
    outer loop
      vertex 33.1162 9.04274 0
      vertex 33.1162 9.04274 2
      vertex 34.006 7.34751 0
    endloop
  endfacet
  facet normal 1 0 0
    outer loop
      vertex 2 7 4
      vertex 2 7 1
      vertex 2 43 1
    endloop
  endfacet
  facet normal 1 0 0
    outer loop
      vertex 2 48 6
      vertex 2 7 4
      vertex 2 43 4
    endloop
  endfacet
  facet normal 1 0 0
    outer loop
      vertex 2 43 4
      vertex 2 7 4
      vertex 2 43 1
    endloop
  endfacet
  facet normal 1 0 0
    outer loop
      vertex 2 48 6
      vertex 2 43 4
      vertex 2 48 4
    endloop
  endfacet
  facet normal 1 0 0
    outer loop
      vertex 2 25 5
      vertex 2 7 4
      vertex 2 48 6
    endloop
  endfacet
  facet normal 1 0 0
    outer loop
      vertex 2 25 6
      vertex 2 25 5
      vertex 2 48 6
    endloop
  endfacet
  facet normal 1 0 0
    outer loop
      vertex 2 21 5
      vertex 2 7 4
      vertex 2 25 5
    endloop
  endfacet
  facet normal 1 0 0
    outer loop
      vertex 2 2 6
      vertex 2 7 4
      vertex 2 21 6
    endloop
  endfacet
  facet normal 1 0 0
    outer loop
      vertex 2 21 5
      vertex 2 21 6
      vertex 2 7 4
    endloop
  endfacet
  facet normal 1 0 0
    outer loop
      vertex 2 2 4
      vertex 2 7 4
      vertex 2 2 6
    endloop
  endfacet
  facet normal 0 1 0
    outer loop
      vertex 45 2 6
      vertex 45 2 4
      vertex 2 2 6
    endloop
  endfacet
  facet normal 0 1 0
    outer loop
      vertex 2 2 6
      vertex 45 2 4
      vertex 31.0912 2 4
    endloop
  endfacet
  facet normal 0 1 0
    outer loop
      vertex 2 2 6
      vertex 31.0912 2 4
      vertex 31.0912 2 1
    endloop
  endfacet
  facet normal 0 1 0
    outer loop
      vertex 7 2 4
      vertex 31.0912 2 1
      vertex 7 2 1
    endloop
  endfacet
  facet normal 0 1 0
    outer loop
      vertex 2 2 6
      vertex 31.0912 2 1
      vertex 7 2 4
    endloop
  endfacet
  facet normal 0 1 0
    outer loop
      vertex 2 2 4
      vertex 2 2 6
      vertex 7 2 4
    endloop
  endfacet
  facet normal -1 0 0
    outer loop
      vertex 45 21 6
      vertex 45 21 5
      vertex 45 2 6
    endloop
  endfacet
  facet normal -1 0 0
    outer loop
      vertex 45 43 4
      vertex 45 21 5
      vertex 45 48 4
    endloop
  endfacet
  facet normal -1 0 0
    outer loop
      vertex 45 48 6
      vertex 45 25 5
      vertex 45 25 6
    endloop
  endfacet
  facet normal -1 0 0
    outer loop
      vertex 45 48 4
      vertex 45 25 5
      vertex 45 48 6
    endloop
  endfacet
  facet normal -1 0 0
    outer loop
      vertex 45 21 5
      vertex 45 25 5
      vertex 45 48 4
    endloop
  endfacet
  facet normal -1 0 0
    outer loop
      vertex 45 2 6
      vertex 45 21 5
      vertex 45 43 1
    endloop
  endfacet
  facet normal -1 0 0
    outer loop
      vertex 45 21 5
      vertex 45 43 4
      vertex 45 43 1
    endloop
  endfacet
  facet normal -1 0 0
    outer loop
      vertex 45 15.978 4
      vertex 45 43 1
      vertex 45 15.978 1
    endloop
  endfacet
  facet normal -1 0 0
    outer loop
      vertex 45 2 6
      vertex 45 43 1
      vertex 45 15.978 4
    endloop
  endfacet
  facet normal -1 0 0
    outer loop
      vertex 45 2 6
      vertex 45 15.978 4
      vertex 45 10 4
    endloop
  endfacet
  facet normal -1 0 0
    outer loop
      vertex 45 2 4
      vertex 45 2 6
      vertex 45 10 4
    endloop
  endfacet
  facet normal 0 -1 0
    outer loop
      vertex 44 21 6
      vertex 44 21 5
      vertex 45 21 5
    endloop
  endfacet
  facet normal 0 -1 0
    outer loop
      vertex 45 21 6
      vertex 44 21 6
      vertex 45 21 5
    endloop
  endfacet
  facet normal -1 0 0
    outer loop
      vertex 44 21 5
      vertex 44 21 6
      vertex 44 25 5
    endloop
  endfacet
  facet normal -1 0 0
    outer loop
      vertex 44 25 5
      vertex 44 21 6
      vertex 44 25 6
    endloop
  endfacet
  facet normal 0 1 0
    outer loop
      vertex 44 25 5
      vertex 44 25 6
      vertex 45 25 5
    endloop
  endfacet
  facet normal 0 1 0
    outer loop
      vertex 45 25 5
      vertex 44 25 6
      vertex 45 25 6
    endloop
  endfacet
  facet normal 0 -1 0
    outer loop
      vertex 7 48 4
      vertex 7 48 1
      vertex 40 48 1
    endloop
  endfacet
  facet normal 0 -1 0
    outer loop
      vertex 45 48 6
      vertex 7 48 4
      vertex 40 48 4
    endloop
  endfacet
  facet normal 0 -1 0
    outer loop
      vertex 40 48 4
      vertex 7 48 4
      vertex 40 48 1
    endloop
  endfacet
  facet normal 0 -1 0
    outer loop
      vertex 45 48 6
      vertex 40 48 4
      vertex 45 48 4
    endloop
  endfacet
  facet normal 0 -1 0
    outer loop
      vertex 2 48 6
      vertex 7 48 4
      vertex 45 48 6
    endloop
  endfacet
  facet normal 0 -1 0
    outer loop
      vertex 2 48 4
      vertex 7 48 4
      vertex 2 48 6
    endloop
  endfacet
  facet normal 0 1 0
    outer loop
      vertex 2 25 5
      vertex 2 25 6
      vertex 3 25 5
    endloop
  endfacet
  facet normal 0 1 0
    outer loop
      vertex 3 25 5
      vertex 2 25 6
      vertex 3 25 6
    endloop
  endfacet
  facet normal 1 0 0
    outer loop
      vertex 3 21 6
      vertex 3 21 5
      vertex 3 25 5
    endloop
  endfacet
  facet normal 1 0 0
    outer loop
      vertex 3 25 6
      vertex 3 21 6
      vertex 3 25 5
    endloop
  endfacet
  facet normal 0 -1 0
    outer loop
      vertex 2 21 6
      vertex 2 21 5
      vertex 3 21 5
    endloop
  endfacet
  facet normal 0 -1 0
    outer loop
      vertex 3 21 6
      vertex 2 21 6
      vertex 3 21 5
    endloop
  endfacet
  facet normal 0 0 1
    outer loop
      vertex 29.2325 8.08547 2
      vertex 29.9164 6.28221 2
      vertex 31.0119 4.69502 2
    endloop
  endfacet
  facet normal 0 0 1
    outer loop
      vertex 34.1632 2.51987 2
      vertex 29.2325 8.08547 2
      vertex 32.4555 3.41613 2
    endloop
  endfacet
  facet normal 0 0 1
    outer loop
      vertex 32.4555 3.41613 2
      vertex 29.2325 8.08547 2
      vertex 31.0119 4.69502 2
    endloop
  endfacet
  facet normal 0 0 1
    outer loop
      vertex 36.0357 2.05833 2
      vertex 29.2325 8.08547 2
      vertex 34.1632 2.51987 2
    endloop
  endfacet
  facet normal 0 0 1
    outer loop
      vertex 37.9643 2.05833 2
      vertex 29.2325 8.08547 2
      vertex 36.0357 2.05833 2
    endloop
  endfacet
  facet normal 0 0 1
    outer loop
      vertex 39.8368 2.51987 2
      vertex 29.2325 8.08547 2
      vertex 37.9643 2.05833 2
    endloop
  endfacet
  facet normal 0 0 1
    outer loop
      vertex 41.5445 3.41613 2
      vertex 29.2325 8.08547 2
      vertex 39.8368 2.51987 2
    endloop
  endfacet
  facet normal 0 0 1
    outer loop
      vertex 35.5816 6.25993 2
      vertex 29.2325 8.08547 2
      vertex 41.5445 3.41613 2
    endloop
  endfacet
  facet normal 0 0 1
    outer loop
      vertex 35.5816 6.25993 2
      vertex 34.006 7.34751 2
      vertex 29.2325 8.08547 2
    endloop
  endfacet
  facet normal 0 0 1
    outer loop
      vertex 39.2723 6.70806 2
      vertex 37.4821 6.02916 2
      vertex 42.9881 4.69502 2
    endloop
  endfacet
  facet normal 0 0 1
    outer loop
      vertex 40.5418 8.14111 2
      vertex 44.0836 6.28221 2
      vertex 44.7675 8.08547 2
    endloop
  endfacet
  facet normal 0 0 1
    outer loop
      vertex 34.006 7.34751 2
      vertex 33.1162 9.04274 2
      vertex 29.2325 8.08547 2
    endloop
  endfacet
  facet normal 0 0 1
    outer loop
      vertex 37.4821 13.9708 2
      vertex 42.9881 15.305 2
      vertex 41.5445 16.5839 2
    endloop
  endfacet
  facet normal 0 0 1
    outer loop
      vertex 35.5816 13.7401 2
      vertex 37.4821 13.9708 2
      vertex 39.8368 17.4801 2
    endloop
  endfacet
  facet normal 0 0 1
    outer loop
      vertex 36.0357 17.9417 2
      vertex 29.2325 8.08547 2
      vertex 37.9643 17.9417 2
    endloop
  endfacet
  facet normal 0 0 1
    outer loop
      vertex 34.1632 17.4801 2
      vertex 29.2325 8.08547 2
      vertex 36.0357 17.9417 2
    endloop
  endfacet
  facet normal 0 0 1
    outer loop
      vertex 32.4555 16.5839 2
      vertex 29.2325 8.08547 2
      vertex 34.1632 17.4801 2
    endloop
  endfacet
  facet normal 0 0 1
    outer loop
      vertex 31.0119 15.305 2
      vertex 29.2325 8.08547 2
      vertex 32.4555 16.5839 2
    endloop
  endfacet
  facet normal 0 0 1
    outer loop
      vertex 29.9164 13.7178 2
      vertex 29.2325 8.08547 2
      vertex 31.0119 15.305 2
    endloop
  endfacet
  facet normal 0 0 1
    outer loop
      vertex 29.2325 11.9145 2
      vertex 29.2325 8.08547 2
      vertex 29.9164 13.7178 2
    endloop
  endfacet
  facet normal 0 0 1
    outer loop
      vertex 29 10 2
      vertex 29.2325 8.08547 2
      vertex 29.2325 11.9145 2
    endloop
  endfacet
  facet normal 0 0 1
    outer loop
      vertex 40.5418 11.8589 2
      vertex 41 10 2
      vertex 44.7675 11.9145 2
    endloop
  endfacet
  facet normal 0 0 1
    outer loop
      vertex 37.4821 13.9708 2
      vertex 39.2723 13.2919 2
      vertex 42.9881 15.305 2
    endloop
  endfacet
  facet normal 0 0 1
    outer loop
      vertex 37.9643 17.9417 2
      vertex 34.006 12.6525 2
      vertex 39.8368 17.4801 2
    endloop
  endfacet
  facet normal 0 0 1
    outer loop
      vertex 37.9643 17.9417 2
      vertex 29.2325 8.08547 2
      vertex 34.006 12.6525 2
    endloop
  endfacet
  facet normal 0 0 1
    outer loop
      vertex 34.006 12.6525 2
      vertex 35.5816 13.7401 2
      vertex 39.8368 17.4801 2
    endloop
  endfacet
  facet normal 0 0 1
    outer loop
      vertex 39.8368 17.4801 2
      vertex 37.4821 13.9708 2
      vertex 41.5445 16.5839 2
    endloop
  endfacet
  facet normal 0 0 1
    outer loop
      vertex 42.9881 15.305 2
      vertex 39.2723 13.2919 2
      vertex 44.0836 13.7178 2
    endloop
  endfacet
  facet normal 0 0 1
    outer loop
      vertex 33.1162 10.9573 2
      vertex 34.006 12.6525 2
      vertex 29.2325 8.08547 2
    endloop
  endfacet
  facet normal 0 0 1
    outer loop
      vertex 44.0836 13.7178 2
      vertex 40.5418 11.8589 2
      vertex 44.7675 11.9145 2
    endloop
  endfacet
  facet normal 0 0 1
    outer loop
      vertex 44.7675 11.9145 2
      vertex 41 10 2
      vertex 45 10 2
    endloop
  endfacet
  facet normal 0 0 1
    outer loop
      vertex 45 10 2
      vertex 40.5418 8.14111 2
      vertex 44.7675 8.08547 2
    endloop
  endfacet
  facet normal 0 0 1
    outer loop
      vertex 44.0836 6.28221 2
      vertex 39.2723 6.70806 2
      vertex 42.9881 4.69502 2
    endloop
  endfacet
  facet normal 0 0 1
    outer loop
      vertex 42.9881 4.69502 2
      vertex 37.4821 6.02916 2
      vertex 41.5445 3.41613 2
    endloop
  endfacet
  facet normal 0 0 1
    outer loop
      vertex 37.4821 6.02916 2
      vertex 35.5816 6.25993 2
      vertex 41.5445 3.41613 2
    endloop
  endfacet
  facet normal 0 0 1
    outer loop
      vertex 39.2723 13.2919 2
      vertex 40.5418 11.8589 2
      vertex 44.0836 13.7178 2
    endloop
  endfacet
  facet normal 0 0 1
    outer loop
      vertex 40.5418 8.14111 2
      vertex 39.2723 6.70806 2
      vertex 44.0836 6.28221 2
    endloop
  endfacet
  facet normal 0 0 1
    outer loop
      vertex 41 10 2
      vertex 40.5418 8.14111 2
      vertex 45 10 2
    endloop
  endfacet
  facet normal 0 0 1
    outer loop
      vertex 33.1162 9.04274 2
      vertex 33.1162 10.9573 2
      vertex 29.2325 8.08547 2
    endloop
  endfacet
  facet normal 0 1 0
    outer loop
      vertex 2 7 1
      vertex 2 7 4
      vertex 7 7 1
    endloop
  endfacet
  facet normal 0 1 0
    outer loop
      vertex 7 7 1
      vertex 2 7 4
      vertex 7 7 4
    endloop
  endfacet
  facet normal 0 0 1
    outer loop
      vertex 2 7 4
      vertex 2 2 4
      vertex 7 2 4
    endloop
  endfacet
  facet normal 0 0 1
    outer loop
      vertex 7 7 4
      vertex 2 7 4
      vertex 7 2 4
    endloop
  endfacet
  facet normal 0 0 -1
    outer loop
      vertex 2 21 5
      vertex 2 25 5
      vertex 3 21 5
    endloop
  endfacet
  facet normal 0 0 -1
    outer loop
      vertex 3 21 5
      vertex 2 25 5
      vertex 3 25 5
    endloop
  endfacet
  facet normal 0 0 1
    outer loop
      vertex 2 48 4
      vertex 2 43 4
      vertex 7 43 4
    endloop
  endfacet
  facet normal 0 0 1
    outer loop
      vertex 7 48 4
      vertex 2 48 4
      vertex 7 43 4
    endloop
  endfacet
  facet normal 0 -1 0
    outer loop
      vertex 2 43 4
      vertex 2 43 1
      vertex 7 43 1
    endloop
  endfacet
  facet normal 0 -1 0
    outer loop
      vertex 7 43 4
      vertex 2 43 4
      vertex 7 43 1
    endloop
  endfacet
  facet normal 0 0 1
    outer loop
      vertex 7 7 1
      vertex 7 2 1
      vertex 31.0912 2 1
    endloop
  endfacet
  facet normal 0 0 1
    outer loop
      vertex 28.9098 4.12215 1
      vertex 7 7 1
      vertex 30.3087 2.56855 1
    endloop
  endfacet
  facet normal 0 0 1
    outer loop
      vertex 30.3087 2.56855 1
      vertex 7 7 1
      vertex 31.0912 2 1
    endloop
  endfacet
  facet normal 0 0 1
    outer loop
      vertex 27.8645 5.93263 1
      vertex 7 7 1
      vertex 28.9098 4.12215 1
    endloop
  endfacet
  facet normal 0 0 1
    outer loop
      vertex 27.2185 7.92088 1
      vertex 7 7 1
      vertex 27.8645 5.93263 1
    endloop
  endfacet
  facet normal 0 0 1
    outer loop
      vertex 27 10 1
      vertex 7 7 1
      vertex 27.2185 7.92088 1
    endloop
  endfacet
  facet normal 0 0 1
    outer loop
      vertex 27.2185 12.0791 1
      vertex 7 7 1
      vertex 27 10 1
    endloop
  endfacet
  facet normal 0 0 1
    outer loop
      vertex 27.8645 14.0674 1
      vertex 7 7 1
      vertex 27.2185 12.0791 1
    endloop
  endfacet
  facet normal 0 0 1
    outer loop
      vertex 28.9098 15.8779 1
      vertex 7 7 1
      vertex 27.8645 14.0674 1
    endloop
  endfacet
  facet normal 0 0 1
    outer loop
      vertex 30.3087 17.4314 1
      vertex 7 7 1
      vertex 28.9098 15.8779 1
    endloop
  endfacet
  facet normal 0 0 1
    outer loop
      vertex 32 18.6603 1
      vertex 7 7 1
      vertex 30.3087 17.4314 1
    endloop
  endfacet
  facet normal 0 0 1
    outer loop
      vertex 45 43 1
      vertex 7 7 1
      vertex 32 18.6603 1
    endloop
  endfacet
  facet normal 0 0 1
    outer loop
      vertex 45 43 1
      vertex 32 18.6603 1
      vertex 33.9098 19.5106 1
    endloop
  endfacet
  facet normal 0 0 1
    outer loop
      vertex 45 43 1
      vertex 33.9098 19.5106 1
      vertex 35.9547 19.9452 1
    endloop
  endfacet
  facet normal 0 0 1
    outer loop
      vertex 45 43 1
      vertex 35.9547 19.9452 1
      vertex 38.0453 19.9452 1
    endloop
  endfacet
  facet normal 0 0 1
    outer loop
      vertex 45 43 1
      vertex 38.0453 19.9452 1
      vertex 40.0902 19.5106 1
    endloop
  endfacet
  facet normal 0 0 1
    outer loop
      vertex 45 43 1
      vertex 40.0902 19.5106 1
      vertex 42 18.6603 1
    endloop
  endfacet
  facet normal 0 0 1
    outer loop
      vertex 45 43 1
      vertex 42 18.6603 1
      vertex 43.6913 17.4314 1
    endloop
  endfacet
  facet normal 0 0 1
    outer loop
      vertex 45 43 1
      vertex 43.6913 17.4314 1
      vertex 45 15.978 1
    endloop
  endfacet
  facet normal 0 0 1
    outer loop
      vertex 40 43 1
      vertex 7 7 1
      vertex 45 43 1
    endloop
  endfacet
  facet normal 0 0 1
    outer loop
      vertex 40 48 1
      vertex 7 7 1
      vertex 40 43 1
    endloop
  endfacet
  facet normal 0 0 1
    outer loop
      vertex 7 43 1
      vertex 7 7 1
      vertex 40 48 1
    endloop
  endfacet
  facet normal 0 0 1
    outer loop
      vertex 2 43 1
      vertex 7 7 1
      vertex 7 43 1
    endloop
  endfacet
  facet normal 0 0 1
    outer loop
      vertex 7 48 1
      vertex 7 43 1
      vertex 40 48 1
    endloop
  endfacet
  facet normal 0 0 1
    outer loop
      vertex 2 7 1
      vertex 7 7 1
      vertex 2 43 1
    endloop
  endfacet
  facet normal 1 0 0
    outer loop
      vertex 7 2 4
      vertex 7 2 1
      vertex 7 7 1
    endloop
  endfacet
  facet normal 1 0 0
    outer loop
      vertex 7 7 4
      vertex 7 2 4
      vertex 7 7 1
    endloop
  endfacet
  facet normal -0.587785 -0.809017 0
    outer loop
      vertex 30.3087 2.56855 4
      vertex 30.3087 2.56855 1
      vertex 31.0912 2 1
    endloop
  endfacet
  facet normal -0.587785 -0.809017 0
    outer loop
      vertex 31.0912 2 4
      vertex 30.3087 2.56855 4
      vertex 31.0912 2 1
    endloop
  endfacet
  facet normal 0 0 1
    outer loop
      vertex 27.2185 12.0791 4
      vertex 27 10 4
      vertex 27.2185 7.92088 4
    endloop
  endfacet
  facet normal 0 0 1
    outer loop
      vertex 28.9098 4.12215 4
      vertex 27.2185 12.0791 4
      vertex 27.8645 5.93263 4
    endloop
  endfacet
  facet normal 0 0 1
    outer loop
      vertex 27.8645 5.93263 4
      vertex 27.2185 12.0791 4
      vertex 27.2185 7.92088 4
    endloop
  endfacet
  facet normal 0 0 1
    outer loop
      vertex 30.3087 2.56855 4
      vertex 27.2185 12.0791 4
      vertex 28.9098 4.12215 4
    endloop
  endfacet
  facet normal 0 0 1
    outer loop
      vertex 31.0912 2 4
      vertex 27.2185 12.0791 4
      vertex 30.3087 2.56855 4
    endloop
  endfacet
  facet normal 0 0 1
    outer loop
      vertex 29.9164 6.28221 4
      vertex 27.2185 12.0791 4
      vertex 31.0912 2 4
    endloop
  endfacet
  facet normal 0 0 1
    outer loop
      vertex 45 10 4
      vertex 44.7675 8.08547 4
      vertex 45 2 4
    endloop
  endfacet
  facet normal 0 0 1
    outer loop
      vertex 44.7675 8.08547 4
      vertex 44.0836 6.28221 4
      vertex 45 2 4
    endloop
  endfacet
  facet normal 0 0 1
    outer loop
      vertex 44.0836 6.28221 4
      vertex 42.9881 4.69502 4
      vertex 45 2 4
    endloop
  endfacet
  facet normal 0 0 1
    outer loop
      vertex 45 2 4
      vertex 41.5445 3.41613 4
      vertex 39.8368 2.51987 4
    endloop
  endfacet
  facet normal 0 0 1
    outer loop
      vertex 45 2 4
      vertex 37.9643 2.05833 4
      vertex 31.0912 2 4
    endloop
  endfacet
  facet normal 0 0 1
    outer loop
      vertex 45 2 4
      vertex 39.8368 2.51987 4
      vertex 37.9643 2.05833 4
    endloop
  endfacet
  facet normal 0 0 1
    outer loop
      vertex 37.9643 2.05833 4
      vertex 36.0357 2.05833 4
      vertex 31.0912 2 4
    endloop
  endfacet
  facet normal 0 0 1
    outer loop
      vertex 34.1632 2.51987 4
      vertex 32.4555 3.41613 4
      vertex 31.0912 2 4
    endloop
  endfacet
  facet normal 0 0 1
    outer loop
      vertex 32.4555 3.41613 4
      vertex 31.0119 4.69502 4
      vertex 31.0912 2 4
    endloop
  endfacet
  facet normal 0 0 1
    outer loop
      vertex 31.0119 4.69502 4
      vertex 29.9164 6.28221 4
      vertex 31.0912 2 4
    endloop
  endfacet
  facet normal 0 0 1
    outer loop
      vertex 29.2325 8.08547 4
      vertex 27.2185 12.0791 4
      vertex 29.9164 6.28221 4
    endloop
  endfacet
  facet normal 0 0 1
    outer loop
      vertex 29.9164 13.7178 4
      vertex 27.2185 12.0791 4
      vertex 29.2325 11.9145 4
    endloop
  endfacet
  facet normal 0 0 1
    outer loop
      vertex 31.0119 15.305 4
      vertex 27.2185 12.0791 4
      vertex 29.9164 13.7178 4
    endloop
  endfacet
  facet normal 0 0 1
    outer loop
      vertex 32.4555 16.5839 4
      vertex 27.2185 12.0791 4
      vertex 31.0119 15.305 4
    endloop
  endfacet
  facet normal 0 0 1
    outer loop
      vertex 35.9547 19.9452 4
      vertex 27.2185 12.0791 4
      vertex 32.4555 16.5839 4
    endloop
  endfacet
  facet normal 0 0 1
    outer loop
      vertex 38.0453 19.9452 4
      vertex 32.4555 16.5839 4
      vertex 34.1632 17.4801 4
    endloop
  endfacet
  facet normal 0 0 1
    outer loop
      vertex 40.0902 19.5106 4
      vertex 34.1632 17.4801 4
      vertex 36.0357 17.9417 4
    endloop
  endfacet
  facet normal 0 0 1
    outer loop
      vertex 42 18.6603 4
      vertex 36.0357 17.9417 4
      vertex 37.9643 17.9417 4
    endloop
  endfacet
  facet normal 0 0 1
    outer loop
      vertex 43.6913 17.4314 4
      vertex 37.9643 17.9417 4
      vertex 39.8368 17.4801 4
    endloop
  endfacet
  facet normal 0 0 1
    outer loop
      vertex 45 15.978 4
      vertex 39.8368 17.4801 4
      vertex 41.5445 16.5839 4
    endloop
  endfacet
  facet normal 0 0 1
    outer loop
      vertex 45 15.978 4
      vertex 41.5445 16.5839 4
      vertex 42.9881 15.305 4
    endloop
  endfacet
  facet normal 0 0 1
    outer loop
      vertex 45 15.978 4
      vertex 42.9881 15.305 4
      vertex 44.0836 13.7178 4
    endloop
  endfacet
  facet normal 0 0 1
    outer loop
      vertex 45 15.978 4
      vertex 44.0836 13.7178 4
      vertex 44.7675 11.9145 4
    endloop
  endfacet
  facet normal 0 0 1
    outer loop
      vertex 45 10 4
      vertex 45 15.978 4
      vertex 44.7675 11.9145 4
    endloop
  endfacet
  facet normal 0 0 1
    outer loop
      vertex 43.6913 17.4314 4
      vertex 39.8368 17.4801 4
      vertex 45 15.978 4
    endloop
  endfacet
  facet normal 0 0 1
    outer loop
      vertex 42 18.6603 4
      vertex 37.9643 17.9417 4
      vertex 43.6913 17.4314 4
    endloop
  endfacet
  facet normal 0 0 1
    outer loop
      vertex 40.0902 19.5106 4
      vertex 36.0357 17.9417 4
      vertex 42 18.6603 4
    endloop
  endfacet
  facet normal 0 0 1
    outer loop
      vertex 38.0453 19.9452 4
      vertex 34.1632 17.4801 4
      vertex 40.0902 19.5106 4
    endloop
  endfacet
  facet normal 0 0 1
    outer loop
      vertex 35.9547 19.9452 4
      vertex 32.4555 16.5839 4
      vertex 38.0453 19.9452 4
    endloop
  endfacet
  facet normal 0 0 1
    outer loop
      vertex 33.9098 19.5106 4
      vertex 27.2185 12.0791 4
      vertex 35.9547 19.9452 4
    endloop
  endfacet
  facet normal 0 0 1
    outer loop
      vertex 32 18.6603 4
      vertex 27.2185 12.0791 4
      vertex 33.9098 19.5106 4
    endloop
  endfacet
  facet normal 0 0 1
    outer loop
      vertex 30.3087 17.4314 4
      vertex 27.2185 12.0791 4
      vertex 32 18.6603 4
    endloop
  endfacet
  facet normal 0 0 1
    outer loop
      vertex 28.9098 15.8779 4
      vertex 27.2185 12.0791 4
      vertex 30.3087 17.4314 4
    endloop
  endfacet
  facet normal 0 0 1
    outer loop
      vertex 27.8645 14.0674 4
      vertex 27.2185 12.0791 4
      vertex 28.9098 15.8779 4
    endloop
  endfacet
  facet normal 0 0 1
    outer loop
      vertex 42.9881 4.69502 4
      vertex 41.5445 3.41613 4
      vertex 45 2 4
    endloop
  endfacet
  facet normal 0 0 1
    outer loop
      vertex 36.0357 2.05833 4
      vertex 34.1632 2.51987 4
      vertex 31.0912 2 4
    endloop
  endfacet
  facet normal 0 0 1
    outer loop
      vertex 29.2325 8.08547 4
      vertex 29 10 4
      vertex 27.2185 12.0791 4
    endloop
  endfacet
  facet normal 0 0 1
    outer loop
      vertex 29 10 4
      vertex 29.2325 11.9145 4
      vertex 27.2185 12.0791 4
    endloop
  endfacet
  facet normal -0.992709 0.120536 0
    outer loop
      vertex 45 10 4
      vertex 45 10 2
      vertex 44.7675 8.08547 4
    endloop
  endfacet
  facet normal -0.992709 0.120536 0
    outer loop
      vertex 44.7675 8.08547 4
      vertex 45 10 2
      vertex 44.7675 8.08547 2
    endloop
  endfacet
  facet normal -0.992709 -0.120536 0
    outer loop
      vertex 45 10 4
      vertex 44.7675 11.9145 4
      vertex 45 10 2
    endloop
  endfacet
  facet normal -0.992709 -0.120536 0
    outer loop
      vertex 45 10 2
      vertex 44.7675 11.9145 4
      vertex 44.7675 11.9145 2
    endloop
  endfacet
  facet normal 0.743145 0.669131 0
    outer loop
      vertex 45 15.978 1
      vertex 43.6913 17.4314 1
      vertex 43.6913 17.4314 4
    endloop
  endfacet
  facet normal 0.743145 0.669131 0
    outer loop
      vertex 45 15.978 4
      vertex 45 15.978 1
      vertex 43.6913 17.4314 4
    endloop
  endfacet
  facet normal 0 -1 0
    outer loop
      vertex 40 43 4
      vertex 40 43 1
      vertex 45 43 1
    endloop
  endfacet
  facet normal 0 -1 0
    outer loop
      vertex 45 43 4
      vertex 40 43 4
      vertex 45 43 1
    endloop
  endfacet
  facet normal 0 0 1
    outer loop
      vertex 40 48 4
      vertex 40 43 4
      vertex 45 43 4
    endloop
  endfacet
  facet normal 0 0 1
    outer loop
      vertex 45 48 4
      vertex 40 48 4
      vertex 45 43 4
    endloop
  endfacet
  facet normal 0 0 -1
    outer loop
      vertex 44 21 5
      vertex 44 25 5
      vertex 45 21 5
    endloop
  endfacet
  facet normal 0 0 -1
    outer loop
      vertex 45 21 5
      vertex 44 25 5
      vertex 45 25 5
    endloop
  endfacet
  facet normal 1 0 0
    outer loop
      vertex 7 43 4
      vertex 7 43 1
      vertex 7 48 1
    endloop
  endfacet
  facet normal 1 0 0
    outer loop
      vertex 7 48 4
      vertex 7 43 4
      vertex 7 48 1
    endloop
  endfacet
  facet normal -1 0 0
    outer loop
      vertex 40 43 1
      vertex 40 43 4
      vertex 40 48 1
    endloop
  endfacet
  facet normal -1 0 0
    outer loop
      vertex 40 48 1
      vertex 40 43 4
      vertex 40 48 4
    endloop
  endfacet
  facet normal 0.935016 0.354605 0
    outer loop
      vertex 29.2325 8.08547 4
      vertex 29.9164 6.28221 4
      vertex 29.9164 6.28221 2
    endloop
  endfacet
  facet normal 0.935016 0.354605 0
    outer loop
      vertex 29.2325 8.08547 2
      vertex 29.2325 8.08547 4
      vertex 29.9164 6.28221 2
    endloop
  endfacet
  facet normal 0.992709 0.120536 0
    outer loop
      vertex 29 10 4
      vertex 29.2325 8.08547 4
      vertex 29.2325 8.08547 2
    endloop
  endfacet
  facet normal 0.992709 0.120536 0
    outer loop
      vertex 29 10 2
      vertex 29 10 4
      vertex 29.2325 8.08547 2
    endloop
  endfacet
  facet normal 0.992709 -0.120536 0
    outer loop
      vertex 29.2325 11.9145 2
      vertex 29.2325 11.9145 4
      vertex 29 10 4
    endloop
  endfacet
  facet normal 0.992709 -0.120536 0
    outer loop
      vertex 29 10 2
      vertex 29.2325 11.9145 2
      vertex 29 10 4
    endloop
  endfacet
  facet normal 0.935016 -0.354605 0
    outer loop
      vertex 29.9164 13.7178 2
      vertex 29.9164 13.7178 4
      vertex 29.2325 11.9145 4
    endloop
  endfacet
  facet normal 0.935016 -0.354605 0
    outer loop
      vertex 29.2325 11.9145 2
      vertex 29.9164 13.7178 2
      vertex 29.2325 11.9145 4
    endloop
  endfacet
  facet normal 0.822984 -0.568065 0
    outer loop
      vertex 31.0119 15.305 2
      vertex 31.0119 15.305 4
      vertex 29.9164 13.7178 4
    endloop
  endfacet
  facet normal 0.822984 -0.568065 0
    outer loop
      vertex 29.9164 13.7178 2
      vertex 31.0119 15.305 2
      vertex 29.9164 13.7178 4
    endloop
  endfacet
  facet normal 0.663123 -0.748511 0
    outer loop
      vertex 32.4555 16.5839 2
      vertex 32.4555 16.5839 4
      vertex 31.0119 15.305 4
    endloop
  endfacet
  facet normal 0.663123 -0.748511 0
    outer loop
      vertex 31.0119 15.305 2
      vertex 32.4555 16.5839 2
      vertex 31.0119 15.305 4
    endloop
  endfacet
  facet normal 0.464723 -0.885456 0
    outer loop
      vertex 34.1632 17.4801 2
      vertex 34.1632 17.4801 4
      vertex 32.4555 16.5839 4
    endloop
  endfacet
  facet normal 0.464723 -0.885456 0
    outer loop
      vertex 32.4555 16.5839 2
      vertex 34.1632 17.4801 2
      vertex 32.4555 16.5839 4
    endloop
  endfacet
  facet normal 0.239316 -0.970942 0
    outer loop
      vertex 36.0357 17.9417 2
      vertex 36.0357 17.9417 4
      vertex 34.1632 17.4801 4
    endloop
  endfacet
  facet normal 0.239316 -0.970942 0
    outer loop
      vertex 34.1632 17.4801 2
      vertex 36.0357 17.9417 2
      vertex 34.1632 17.4801 4
    endloop
  endfacet
  facet normal 0 -1 0
    outer loop
      vertex 37.9643 17.9417 2
      vertex 37.9643 17.9417 4
      vertex 36.0357 17.9417 4
    endloop
  endfacet
  facet normal 0 -1 0
    outer loop
      vertex 36.0357 17.9417 2
      vertex 37.9643 17.9417 2
      vertex 36.0357 17.9417 4
    endloop
  endfacet
  facet normal -0.239316 -0.970942 0
    outer loop
      vertex 39.8368 17.4801 2
      vertex 39.8368 17.4801 4
      vertex 37.9643 17.9417 4
    endloop
  endfacet
  facet normal -0.239316 -0.970942 0
    outer loop
      vertex 37.9643 17.9417 2
      vertex 39.8368 17.4801 2
      vertex 37.9643 17.9417 4
    endloop
  endfacet
  facet normal -0.464723 -0.885456 0
    outer loop
      vertex 41.5445 16.5839 2
      vertex 41.5445 16.5839 4
      vertex 39.8368 17.4801 4
    endloop
  endfacet
  facet normal -0.464723 -0.885456 0
    outer loop
      vertex 39.8368 17.4801 2
      vertex 41.5445 16.5839 2
      vertex 39.8368 17.4801 4
    endloop
  endfacet
  facet normal -0.663123 -0.748511 0
    outer loop
      vertex 42.9881 15.305 2
      vertex 42.9881 15.305 4
      vertex 41.5445 16.5839 4
    endloop
  endfacet
  facet normal -0.663123 -0.748511 0
    outer loop
      vertex 41.5445 16.5839 2
      vertex 42.9881 15.305 2
      vertex 41.5445 16.5839 4
    endloop
  endfacet
  facet normal -0.822984 -0.568065 0
    outer loop
      vertex 44.0836 13.7178 4
      vertex 42.9881 15.305 4
      vertex 44.0836 13.7178 2
    endloop
  endfacet
  facet normal -0.822984 -0.568065 0
    outer loop
      vertex 44.0836 13.7178 2
      vertex 42.9881 15.305 4
      vertex 42.9881 15.305 2
    endloop
  endfacet
  facet normal -0.935016 -0.354605 0
    outer loop
      vertex 44.7675 11.9145 4
      vertex 44.0836 13.7178 4
      vertex 44.7675 11.9145 2
    endloop
  endfacet
  facet normal -0.935016 -0.354605 0
    outer loop
      vertex 44.7675 11.9145 2
      vertex 44.0836 13.7178 4
      vertex 44.0836 13.7178 2
    endloop
  endfacet
  facet normal -0.935016 0.354605 0
    outer loop
      vertex 44.7675 8.08547 4
      vertex 44.7675 8.08547 2
      vertex 44.0836 6.28221 4
    endloop
  endfacet
  facet normal -0.935016 0.354605 0
    outer loop
      vertex 44.0836 6.28221 4
      vertex 44.7675 8.08547 2
      vertex 44.0836 6.28221 2
    endloop
  endfacet
  facet normal -0.822984 0.568065 0
    outer loop
      vertex 44.0836 6.28221 4
      vertex 44.0836 6.28221 2
      vertex 42.9881 4.69502 4
    endloop
  endfacet
  facet normal -0.822984 0.568065 0
    outer loop
      vertex 42.9881 4.69502 4
      vertex 44.0836 6.28221 2
      vertex 42.9881 4.69502 2
    endloop
  endfacet
  facet normal -0.663123 0.748511 0
    outer loop
      vertex 42.9881 4.69502 4
      vertex 42.9881 4.69502 2
      vertex 41.5445 3.41613 4
    endloop
  endfacet
  facet normal -0.663123 0.748511 0
    outer loop
      vertex 41.5445 3.41613 4
      vertex 42.9881 4.69502 2
      vertex 41.5445 3.41613 2
    endloop
  endfacet
  facet normal -0.464723 0.885456 0
    outer loop
      vertex 41.5445 3.41613 4
      vertex 41.5445 3.41613 2
      vertex 39.8368 2.51987 4
    endloop
  endfacet
  facet normal -0.464723 0.885456 0
    outer loop
      vertex 39.8368 2.51987 4
      vertex 41.5445 3.41613 2
      vertex 39.8368 2.51987 2
    endloop
  endfacet
  facet normal -0.239316 0.970942 0
    outer loop
      vertex 39.8368 2.51987 4
      vertex 39.8368 2.51987 2
      vertex 37.9643 2.05833 4
    endloop
  endfacet
  facet normal -0.239316 0.970942 0
    outer loop
      vertex 37.9643 2.05833 4
      vertex 39.8368 2.51987 2
      vertex 37.9643 2.05833 2
    endloop
  endfacet
  facet normal 0 1 0
    outer loop
      vertex 37.9643 2.05833 4
      vertex 37.9643 2.05833 2
      vertex 36.0357 2.05833 4
    endloop
  endfacet
  facet normal 0 1 0
    outer loop
      vertex 36.0357 2.05833 4
      vertex 37.9643 2.05833 2
      vertex 36.0357 2.05833 2
    endloop
  endfacet
  facet normal 0.239316 0.970942 0
    outer loop
      vertex 36.0357 2.05833 4
      vertex 36.0357 2.05833 2
      vertex 34.1632 2.51987 4
    endloop
  endfacet
  facet normal 0.239316 0.970942 0
    outer loop
      vertex 34.1632 2.51987 4
      vertex 36.0357 2.05833 2
      vertex 34.1632 2.51987 2
    endloop
  endfacet
  facet normal 0.464723 0.885456 0
    outer loop
      vertex 34.1632 2.51987 4
      vertex 34.1632 2.51987 2
      vertex 32.4555 3.41613 4
    endloop
  endfacet
  facet normal 0.464723 0.885456 0
    outer loop
      vertex 32.4555 3.41613 4
      vertex 34.1632 2.51987 2
      vertex 32.4555 3.41613 2
    endloop
  endfacet
  facet normal 0.663123 0.748511 0
    outer loop
      vertex 32.4555 3.41613 4
      vertex 32.4555 3.41613 2
      vertex 31.0119 4.69502 4
    endloop
  endfacet
  facet normal 0.663123 0.748511 0
    outer loop
      vertex 31.0119 4.69502 4
      vertex 32.4555 3.41613 2
      vertex 31.0119 4.69502 2
    endloop
  endfacet
  facet normal 0.822984 0.568065 0
    outer loop
      vertex 29.9164 6.28221 4
      vertex 31.0119 4.69502 4
      vertex 31.0119 4.69502 2
    endloop
  endfacet
  facet normal 0.822984 0.568065 0
    outer loop
      vertex 29.9164 6.28221 2
      vertex 29.9164 6.28221 4
      vertex 31.0119 4.69502 2
    endloop
  endfacet
  facet normal 0.587785 0.809017 0
    outer loop
      vertex 42 18.6603 1
      vertex 42 18.6603 4
      vertex 43.6913 17.4314 1
    endloop
  endfacet
  facet normal 0.587785 0.809017 0
    outer loop
      vertex 43.6913 17.4314 1
      vertex 42 18.6603 4
      vertex 43.6913 17.4314 4
    endloop
  endfacet
  facet normal 0.406737 0.913545 0
    outer loop
      vertex 40.0902 19.5106 1
      vertex 40.0902 19.5106 4
      vertex 42 18.6603 1
    endloop
  endfacet
  facet normal 0.406737 0.913545 0
    outer loop
      vertex 42 18.6603 1
      vertex 40.0902 19.5106 4
      vertex 42 18.6603 4
    endloop
  endfacet
  facet normal 0.207912 0.978148 0
    outer loop
      vertex 38.0453 19.9452 1
      vertex 38.0453 19.9452 4
      vertex 40.0902 19.5106 1
    endloop
  endfacet
  facet normal 0.207912 0.978148 0
    outer loop
      vertex 40.0902 19.5106 1
      vertex 38.0453 19.9452 4
      vertex 40.0902 19.5106 4
    endloop
  endfacet
  facet normal 0 1 0
    outer loop
      vertex 35.9547 19.9452 1
      vertex 35.9547 19.9452 4
      vertex 38.0453 19.9452 1
    endloop
  endfacet
  facet normal 0 1 0
    outer loop
      vertex 38.0453 19.9452 1
      vertex 35.9547 19.9452 4
      vertex 38.0453 19.9452 4
    endloop
  endfacet
  facet normal -0.207912 0.978148 0
    outer loop
      vertex 33.9098 19.5106 1
      vertex 33.9098 19.5106 4
      vertex 35.9547 19.9452 1
    endloop
  endfacet
  facet normal -0.207912 0.978148 0
    outer loop
      vertex 35.9547 19.9452 1
      vertex 33.9098 19.5106 4
      vertex 35.9547 19.9452 4
    endloop
  endfacet
  facet normal -0.406737 0.913545 0
    outer loop
      vertex 32 18.6603 1
      vertex 32 18.6603 4
      vertex 33.9098 19.5106 1
    endloop
  endfacet
  facet normal -0.406737 0.913545 0
    outer loop
      vertex 33.9098 19.5106 1
      vertex 32 18.6603 4
      vertex 33.9098 19.5106 4
    endloop
  endfacet
  facet normal -0.587785 0.809017 0
    outer loop
      vertex 30.3087 17.4314 1
      vertex 30.3087 17.4314 4
      vertex 32 18.6603 1
    endloop
  endfacet
  facet normal -0.587785 0.809017 0
    outer loop
      vertex 32 18.6603 1
      vertex 30.3087 17.4314 4
      vertex 32 18.6603 4
    endloop
  endfacet
  facet normal -0.743145 0.669131 0
    outer loop
      vertex 28.9098 15.8779 1
      vertex 28.9098 15.8779 4
      vertex 30.3087 17.4314 1
    endloop
  endfacet
  facet normal -0.743145 0.669131 0
    outer loop
      vertex 30.3087 17.4314 1
      vertex 28.9098 15.8779 4
      vertex 30.3087 17.4314 4
    endloop
  endfacet
  facet normal -0.866025 0.5 0
    outer loop
      vertex 27.8645 14.0674 1
      vertex 27.8645 14.0674 4
      vertex 28.9098 15.8779 1
    endloop
  endfacet
  facet normal -0.866025 0.5 0
    outer loop
      vertex 28.9098 15.8779 1
      vertex 27.8645 14.0674 4
      vertex 28.9098 15.8779 4
    endloop
  endfacet
  facet normal -0.951057 0.309017 0
    outer loop
      vertex 27.2185 12.0791 1
      vertex 27.2185 12.0791 4
      vertex 27.8645 14.0674 1
    endloop
  endfacet
  facet normal -0.951057 0.309017 0
    outer loop
      vertex 27.8645 14.0674 1
      vertex 27.2185 12.0791 4
      vertex 27.8645 14.0674 4
    endloop
  endfacet
  facet normal -0.994522 0.104528 0
    outer loop
      vertex 27 10 1
      vertex 27 10 4
      vertex 27.2185 12.0791 1
    endloop
  endfacet
  facet normal -0.994522 0.104528 0
    outer loop
      vertex 27.2185 12.0791 1
      vertex 27 10 4
      vertex 27.2185 12.0791 4
    endloop
  endfacet
  facet normal -0.994522 -0.104528 0
    outer loop
      vertex 27 10 1
      vertex 27.2185 7.92088 1
      vertex 27 10 4
    endloop
  endfacet
  facet normal -0.994522 -0.104528 0
    outer loop
      vertex 27 10 4
      vertex 27.2185 7.92088 1
      vertex 27.2185 7.92088 4
    endloop
  endfacet
  facet normal -0.951057 -0.309017 0
    outer loop
      vertex 27.2185 7.92088 1
      vertex 27.8645 5.93263 1
      vertex 27.2185 7.92088 4
    endloop
  endfacet
  facet normal -0.951057 -0.309017 0
    outer loop
      vertex 27.2185 7.92088 4
      vertex 27.8645 5.93263 1
      vertex 27.8645 5.93263 4
    endloop
  endfacet
  facet normal -0.866025 -0.5 0
    outer loop
      vertex 27.8645 5.93263 1
      vertex 28.9098 4.12215 1
      vertex 27.8645 5.93263 4
    endloop
  endfacet
  facet normal -0.866025 -0.5 0
    outer loop
      vertex 27.8645 5.93263 4
      vertex 28.9098 4.12215 1
      vertex 28.9098 4.12215 4
    endloop
  endfacet
  facet normal -0.743145 -0.669131 0
    outer loop
      vertex 28.9098 4.12215 1
      vertex 30.3087 2.56855 1
      vertex 28.9098 4.12215 4
    endloop
  endfacet
  facet normal -0.743145 -0.669131 0
    outer loop
      vertex 28.9098 4.12215 4
      vertex 30.3087 2.56855 1
      vertex 30.3087 2.56855 4
    endloop
  endfacet
endsolid OpenSCAD_Model
